STARTFONT 2.1
FONT --New York-Regular-R-Normal--21-180-84-84-P-103-APPLE-ROMAN
SIZE 18 84 84
FONTBOUNDINGBOX 18 21 0 -4
METRICSSET 2
STARTPROPERTIES 19
FONT_ASCENT 17
FONT_DESCENT 4
PIXEL_SIZE 21
RESOLUTION_X 84
RESOLUTION_Y 84
POINT_SIZE 180
FACE_NAME "New York Regular 18"
FOUNDRY ""
FAMILY_NAME "New York"
WEIGHT_NAME "Regular"
RELATIVE_WEIGHT 50
SLANT "R"
SPACING "P"
SETWIDTH_NAME "Normal"
RELATIVE_SETWIDTH 50
ADD_STYLE_NAME ""
AVERAGE_WIDTH 103
CHARSET_REGISTRY "APPLE"
CHARSET_ENCODING "ROMAN"
ENDPROPERTIES
CHARS 182
STARTCHAR char00
ENCODING 0
SWIDTH 0 0
DWIDTH 0 0
BBX 0 0 0 -4
VVECTOR 0 -4
SWIDTH1 0 0
DWIDTH1 0 0
BITMAP 
ENDCHAR
STARTCHAR char02
ENCODING 2
SWIDTH 0 0
DWIDTH 0 0
BBX 0 0 0 -4
VVECTOR 0 -4
SWIDTH1 0 0
DWIDTH1 0 0
BITMAP 
ENDCHAR
STARTCHAR char03
ENCODING 3
SWIDTH 0 0
DWIDTH 0 0
BBX 0 0 0 -4
VVECTOR 0 -4
SWIDTH1 0 0
DWIDTH1 0 0
BITMAP 
ENDCHAR
STARTCHAR char04
ENCODING 4
SWIDTH 0 0
DWIDTH 0 0
BBX 0 0 0 -4
VVECTOR 0 -4
SWIDTH1 0 0
DWIDTH1 0 0
BITMAP 
ENDCHAR
STARTCHAR char05
ENCODING 5
SWIDTH 0 0
DWIDTH 0 0
BBX 0 0 0 -4
VVECTOR 0 -4
SWIDTH1 0 0
DWIDTH1 0 0
BITMAP 
ENDCHAR
STARTCHAR char06
ENCODING 6
SWIDTH 0 0
DWIDTH 0 0
BBX 0 0 0 -4
VVECTOR 0 -4
SWIDTH1 0 0
DWIDTH1 0 0
BITMAP 
ENDCHAR
STARTCHAR char08
ENCODING 8
SWIDTH 0 0
DWIDTH 0 0
BBX 0 0 0 -4
VVECTOR 0 -4
SWIDTH1 0 0
DWIDTH1 0 0
BITMAP 
ENDCHAR
STARTCHAR char09
ENCODING 9
SWIDTH 571 0
DWIDTH 12 0
BBX 0 0 12 -4
VVECTOR 12 -4
SWIDTH1 0 0
DWIDTH1 0 0
BITMAP 
ENDCHAR
STARTCHAR char0A
ENCODING 10
SWIDTH 0 0
DWIDTH 0 0
BBX 0 0 0 -4
VVECTOR 0 -4
SWIDTH1 0 0
DWIDTH1 0 0
BITMAP 
ENDCHAR
STARTCHAR char0B
ENCODING 11
SWIDTH 0 0
DWIDTH 0 0
BBX 0 0 0 -4
VVECTOR 0 -4
SWIDTH1 0 0
DWIDTH1 0 0
BITMAP 
ENDCHAR
STARTCHAR char0C
ENCODING 12
SWIDTH 0 0
DWIDTH 0 0
BBX 0 0 0 -4
VVECTOR 0 -4
SWIDTH1 0 0
DWIDTH1 0 0
BITMAP 
ENDCHAR
STARTCHAR char0D
ENCODING 13
SWIDTH 0 0
DWIDTH 0 0
BBX 0 0 0 -4
VVECTOR 0 -4
SWIDTH1 0 0
DWIDTH1 0 0
BITMAP 
ENDCHAR
STARTCHAR char0E
ENCODING 14
SWIDTH 0 0
DWIDTH 0 0
BBX 0 0 0 -4
VVECTOR 0 -4
SWIDTH1 0 0
DWIDTH1 0 0
BITMAP 
ENDCHAR
STARTCHAR space
ENCODING 32
SWIDTH 286 0
DWIDTH 6 0
BBX 0 0 6 -4
VVECTOR 6 -4
SWIDTH1 0 0
DWIDTH1 0 0
BITMAP 
ENDCHAR
STARTCHAR exclam
ENCODING 33
SWIDTH 286 0
DWIDTH 6 0
BBX 2 14 2 0
VVECTOR 3 17
SWIDTH1 0 -1000
DWIDTH1 0 -21
BITMAP 
C0
C0
C0
C0
C0
C0
C0
C0
C0
C0
C0
00
C0
C0
ENDCHAR
STARTCHAR quotedbl
ENCODING 34
SWIDTH 476 0
DWIDTH 10 0
BBX 4 3 3 11
VVECTOR 5 17
SWIDTH1 0 -1000
DWIDTH1 0 -21
BITMAP 
90
90
90
ENDCHAR
STARTCHAR numbersign
ENCODING 35
SWIDTH 571 0
DWIDTH 12 0
BBX 8 8 2 6
VVECTOR 6 17
SWIDTH1 0 -1000
DWIDTH1 0 -21
BITMAP 
12
12
7F
24
24
FE
48
48
ENDCHAR
STARTCHAR dollar
ENCODING 36
SWIDTH 571 0
DWIDTH 12 0
BBX 7 18 3 -2
VVECTOR 7 17
SWIDTH1 0 -1000
DWIDTH1 0 -21
BITMAP 
10
10
38
54
92
90
D0
F0
78
3C
1E
16
12
92
54
38
10
10
ENDCHAR
STARTCHAR percent
ENCODING 37
SWIDTH 762 0
DWIDTH 16 0
BBX 9 14 2 0
VVECTOR 7 17
SWIDTH1 0 -1000
DWIDTH1 0 -21
BITMAP 
6F00
9100
9200
9200
6400
0400
0800
0800
1000
1300
2480
2480
4480
4300
ENDCHAR
STARTCHAR ampersand
ENCODING 38
SWIDTH 762 0
DWIDTH 16 0
BBX 13 14 1 0
VVECTOR 8 17
SWIDTH1 0 -1000
DWIDTH1 0 -21
BITMAP 
0E00
1300
2300
2300
2600
1C00
1800
3C70
6620
C340
C180
C1C0
6260
3CF8
ENDCHAR
STARTCHAR quotesingle
ENCODING 39
SWIDTH 286 0
DWIDTH 6 0
BBX 1 3 2 11
VVECTOR 3 17
SWIDTH1 0 -1000
DWIDTH1 0 -21
BITMAP 
80
80
80
ENDCHAR
STARTCHAR parenleft
ENCODING 40
SWIDTH 381 0
DWIDTH 8 0
BBX 4 18 2 -2
VVECTOR 4 17
SWIDTH1 0 -1000
DWIDTH1 0 -21
BITMAP 
10
20
20
40
40
C0
C0
C0
C0
C0
C0
C0
C0
40
40
20
20
10
ENDCHAR
STARTCHAR parenright
ENCODING 41
SWIDTH 381 0
DWIDTH 8 0
BBX 4 18 2 -2
VVECTOR 4 17
SWIDTH1 0 -1000
DWIDTH1 0 -21
BITMAP 
80
40
40
20
20
30
30
30
30
30
30
30
30
20
20
40
40
80
ENDCHAR
STARTCHAR asterisk
ENCODING 42
SWIDTH 381 0
DWIDTH 8 0
BBX 7 8 0 6
VVECTOR 4 17
SWIDTH1 0 -1000
DWIDTH1 0 -21
BITMAP 
10
92
54
38
38
54
92
10
ENDCHAR
STARTCHAR plus
ENCODING 43
SWIDTH 571 0
DWIDTH 12 0
BBX 7 7 2 2
VVECTOR 6 17
SWIDTH1 0 -1000
DWIDTH1 0 -21
BITMAP 
10
10
10
FE
10
10
10
ENDCHAR
STARTCHAR comma
ENCODING 44
SWIDTH 286 0
DWIDTH 6 0
BBX 2 4 2 -2
VVECTOR 3 17
SWIDTH1 0 -1000
DWIDTH1 0 -21
BITMAP 
C0
C0
40
80
ENDCHAR
STARTCHAR hyphen
ENCODING 45
SWIDTH 476 0
DWIDTH 10 0
BBX 7 1 1 5
VVECTOR 5 17
SWIDTH1 0 -1000
DWIDTH1 0 -21
BITMAP 
FE
ENDCHAR
STARTCHAR period
ENCODING 46
SWIDTH 286 0
DWIDTH 6 0
BBX 2 2 2 0
VVECTOR 3 17
SWIDTH1 0 -1000
DWIDTH1 0 -21
BITMAP 
C0
C0
ENDCHAR
STARTCHAR slash
ENCODING 47
SWIDTH 476 0
DWIDTH 10 0
BBX 7 14 1 0
VVECTOR 5 17
SWIDTH1 0 -1000
DWIDTH1 0 -21
BITMAP 
02
02
04
04
08
08
10
10
20
20
40
40
80
80
ENDCHAR
STARTCHAR zero
ENCODING 48
SWIDTH 571 0
DWIDTH 12 0
BBX 8 14 2 0
VVECTOR 6 17
SWIDTH1 0 -1000
DWIDTH1 0 -21
BITMAP 
3C
66
42
C3
C3
C3
C3
C3
C3
C3
C3
42
66
3C
ENDCHAR
STARTCHAR one
ENCODING 49
SWIDTH 571 0
DWIDTH 12 0
BBX 4 14 4 0
VVECTOR 6 17
SWIDTH1 0 -1000
DWIDTH1 0 -21
BITMAP 
20
60
E0
60
60
60
60
60
60
60
60
60
60
F0
ENDCHAR
STARTCHAR two
ENCODING 50
SWIDTH 571 0
DWIDTH 12 0
BBX 8 14 2 0
VVECTOR 6 17
SWIDTH1 0 -1000
DWIDTH1 0 -21
BITMAP 
3C
46
83
83
03
03
06
04
08
10
20
41
FF
FF
ENDCHAR
STARTCHAR three
ENCODING 51
SWIDTH 571 0
DWIDTH 12 0
BBX 8 15 2 -1
VVECTOR 6 17
SWIDTH1 0 -1000
DWIDTH1 0 -21
BITMAP 
3C
4E
86
06
0C
18
3C
46
03
03
03
03
82
C4
78
ENDCHAR
STARTCHAR four
ENCODING 52
SWIDTH 571 0
DWIDTH 12 0
BBX 9 14 1 0
VVECTOR 6 17
SWIDTH1 0 -1000
DWIDTH1 0 -21
BITMAP 
0100
0200
0400
0800
1100
2300
4300
8300
FF80
0300
0300
0300
0300
0780
ENDCHAR
STARTCHAR five
ENCODING 53
SWIDTH 571 0
DWIDTH 12 0
BBX 9 16 1 -2
VVECTOR 6 17
SWIDTH1 0 -1000
DWIDTH1 0 -21
BITMAP 
7F00
7F00
4000
4000
7C00
7E00
0700
0380
0180
0180
0180
0180
0100
0200
0C00
F000
ENDCHAR
STARTCHAR six
ENCODING 54
SWIDTH 571 0
DWIDTH 12 0
BBX 9 15 2 0
VVECTOR 7 17
SWIDTH1 0 -1000
DWIDTH1 0 -21
BITMAP 
0600
1800
3000
6000
6000
C000
CE00
DF00
C380
C180
C180
C180
6100
6200
1C00
ENDCHAR
STARTCHAR seven
ENCODING 55
SWIDTH 571 0
DWIDTH 12 0
BBX 9 14 1 0
VVECTOR 6 17
SWIDTH1 0 -1000
DWIDTH1 0 -21
BITMAP 
FF80
FF80
8080
0080
0100
0100
0200
0200
0400
0400
0800
0800
1000
1000
ENDCHAR
STARTCHAR eight
ENCODING 56
SWIDTH 571 0
DWIDTH 12 0
BBX 9 14 1 0
VVECTOR 6 17
SWIDTH1 0 -1000
DWIDTH1 0 -21
BITMAP 
1C00
3200
6100
6100
7200
3C00
1E00
2700
4380
8180
8180
8180
4300
3E00
ENDCHAR
STARTCHAR nine
ENCODING 57
SWIDTH 571 0
DWIDTH 12 0
BBX 9 15 1 -1
VVECTOR 6 17
SWIDTH1 0 -1000
DWIDTH1 0 -21
BITMAP 
1C00
2300
4300
C180
C180
C180
E380
7D80
3980
0180
0300
0300
0600
0C00
3000
ENDCHAR
STARTCHAR colon
ENCODING 58
SWIDTH 286 0
DWIDTH 6 0
BBX 2 9 2 0
VVECTOR 3 17
SWIDTH1 0 -1000
DWIDTH1 0 -21
BITMAP 
C0
C0
00
00
00
00
00
C0
C0
ENDCHAR
STARTCHAR semicolon
ENCODING 59
SWIDTH 286 0
DWIDTH 6 0
BBX 2 11 2 -2
VVECTOR 3 17
SWIDTH1 0 -1000
DWIDTH1 0 -21
BITMAP 
C0
C0
00
00
00
00
00
C0
C0
40
80
ENDCHAR
STARTCHAR less
ENCODING 60
SWIDTH 381 0
DWIDTH 8 0
BBX 5 9 1 0
VVECTOR 4 17
SWIDTH1 0 -1000
DWIDTH1 0 -21
BITMAP 
08
10
20
40
80
40
20
10
08
ENDCHAR
STARTCHAR equal
ENCODING 61
SWIDTH 476 0
DWIDTH 10 0
BBX 7 3 1 4
VVECTOR 5 17
SWIDTH1 0 -1000
DWIDTH1 0 -21
BITMAP 
FE
00
FE
ENDCHAR
STARTCHAR greater
ENCODING 62
SWIDTH 381 0
DWIDTH 8 0
BBX 5 9 2 0
VVECTOR 5 17
SWIDTH1 0 -1000
DWIDTH1 0 -21
BITMAP 
80
40
20
10
08
10
20
40
80
ENDCHAR
STARTCHAR question
ENCODING 63
SWIDTH 476 0
DWIDTH 10 0
BBX 6 14 2 0
VVECTOR 5 17
SWIDTH1 0 -1000
DWIDTH1 0 -21
BITMAP 
70
C8
84
04
04
0C
18
30
60
40
40
00
60
60
ENDCHAR
STARTCHAR at
ENCODING 64
SWIDTH 762 0
DWIDTH 16 0
BBX 10 11 3 -1
VVECTOR 8 17
SWIDTH1 0 -1000
DWIDTH1 0 -21
BITMAP 
1E00
2100
4080
8C40
9240
9240
9240
8D80
4000
2000
1E00
ENDCHAR
STARTCHAR A
ENCODING 65
SWIDTH 762 0
DWIDTH 16 0
BBX 13 14 1 0
VVECTOR 8 17
SWIDTH1 0 -1000
DWIDTH1 0 -21
BITMAP 
0200
0200
0700
0700
0980
0980
10C0
10C0
30E0
2060
3FE0
4030
4030
E078
ENDCHAR
STARTCHAR B
ENCODING 66
SWIDTH 571 0
DWIDTH 12 0
BBX 10 14 1 0
VVECTOR 6 17
SWIDTH1 0 -1000
DWIDTH1 0 -21
BITMAP 
FF00
6180
60C0
60C0
60C0
6180
7F00
6180
60C0
60C0
60C0
60C0
6180
FF00
ENDCHAR
STARTCHAR C
ENCODING 67
SWIDTH 571 0
DWIDTH 12 0
BBX 9 14 2 0
VVECTOR 7 17
SWIDTH1 0 -1000
DWIDTH1 0 -21
BITMAP 
1F00
3180
6080
6000
C000
C000
C000
C000
C000
C000
6000
6080
3180
1F00
ENDCHAR
STARTCHAR D
ENCODING 68
SWIDTH 667 0
DWIDTH 14 0
BBX 11 14 1 0
VVECTOR 7 17
SWIDTH1 0 -1000
DWIDTH1 0 -21
BITMAP 
FF00
6180
60C0
60C0
6060
6060
6060
6060
6060
6060
60C0
60C0
6180
FF00
ENDCHAR
STARTCHAR E
ENCODING 69
SWIDTH 571 0
DWIDTH 12 0
BBX 10 14 1 0
VVECTOR 6 17
SWIDTH1 0 -1000
DWIDTH1 0 -21
BITMAP 
FFC0
60C0
6040
6000
6000
6100
7F00
6100
6000
6000
6040
6040
60C0
FFC0
ENDCHAR
STARTCHAR F
ENCODING 70
SWIDTH 571 0
DWIDTH 12 0
BBX 10 14 1 0
VVECTOR 6 17
SWIDTH1 0 -1000
DWIDTH1 0 -21
BITMAP 
FFC0
60C0
6040
6000
6000
6100
7F00
6100
6000
6000
6000
6000
6000
F000
ENDCHAR
STARTCHAR G
ENCODING 71
SWIDTH 571 0
DWIDTH 12 0
BBX 11 14 1 0
VVECTOR 7 17
SWIDTH1 0 -1000
DWIDTH1 0 -21
BITMAP 
1F80
30C0
6040
6000
C000
C000
C000
C1E0
C0C0
C0C0
60C0
60C0
3180
1F00
ENDCHAR
STARTCHAR H
ENCODING 72
SWIDTH 667 0
DWIDTH 14 0
BBX 12 14 1 0
VVECTOR 7 17
SWIDTH1 0 -1000
DWIDTH1 0 -21
BITMAP 
F0F0
6060
6060
6060
6060
6060
7FE0
6060
6060
6060
6060
6060
6060
F0F0
ENDCHAR
STARTCHAR I
ENCODING 73
SWIDTH 381 0
DWIDTH 8 0
BBX 4 14 2 0
VVECTOR 4 17
SWIDTH1 0 -1000
DWIDTH1 0 -21
BITMAP 
F0
60
60
60
60
60
60
60
60
60
60
60
60
F0
ENDCHAR
STARTCHAR J
ENCODING 74
SWIDTH 476 0
DWIDTH 10 0
BBX 8 18 1 -4
VVECTOR 5 17
SWIDTH1 0 -1000
DWIDTH1 0 -21
BITMAP 
0F
06
06
06
06
06
06
06
06
06
06
06
06
06
06
C4
C8
70
ENDCHAR
STARTCHAR K
ENCODING 75
SWIDTH 667 0
DWIDTH 14 0
BBX 11 14 1 0
VVECTOR 7 17
SWIDTH1 0 -1000
DWIDTH1 0 -21
BITMAP 
F1C0
6080
6100
6200
6400
6800
7000
7800
6C00
6600
6300
6180
60C0
F1E0
ENDCHAR
STARTCHAR L
ENCODING 76
SWIDTH 571 0
DWIDTH 12 0
BBX 10 14 1 0
VVECTOR 6 17
SWIDTH1 0 -1000
DWIDTH1 0 -21
BITMAP 
F000
6000
6000
6000
6000
6000
6000
6000
6000
6000
6040
6040
60C0
FFC0
ENDCHAR
STARTCHAR M
ENCODING 77
SWIDTH 762 0
DWIDTH 16 0
BBX 14 14 1 0
VVECTOR 8 17
SWIDTH1 0 -1000
DWIDTH1 0 -21
BITMAP 
E01C
6038
7038
7058
5858
5898
4C98
4D18
4718
4718
4218
4218
4018
E03C
ENDCHAR
STARTCHAR N
ENCODING 78
SWIDTH 667 0
DWIDTH 14 0
BBX 11 14 1 0
VVECTOR 7 17
SWIDTH1 0 -1000
DWIDTH1 0 -21
BITMAP 
E0E0
7040
7040
5840
5840
4C40
4C40
4640
4640
4340
4340
41C0
41C0
E0C0
ENDCHAR
STARTCHAR O
ENCODING 79
SWIDTH 667 0
DWIDTH 14 0
BBX 11 14 1 0
VVECTOR 7 17
SWIDTH1 0 -1000
DWIDTH1 0 -21
BITMAP 
1F00
3180
60C0
60C0
C060
C060
C060
C060
C060
C060
60C0
60C0
3180
1F00
ENDCHAR
STARTCHAR P
ENCODING 80
SWIDTH 571 0
DWIDTH 12 0
BBX 10 14 1 0
VVECTOR 6 17
SWIDTH1 0 -1000
DWIDTH1 0 -21
BITMAP 
FF00
6180
60C0
60C0
60C0
60C0
6180
7F80
6E00
6000
6000
6000
6000
F000
ENDCHAR
STARTCHAR Q
ENCODING 81
SWIDTH 667 0
DWIDTH 14 0
BBX 11 17 1 -3
VVECTOR 7 17
SWIDTH1 0 -1000
DWIDTH1 0 -21
BITMAP 
1F00
3180
60C0
60C0
C060
C060
C060
C060
C060
C060
60C0
60C0
3180
1F00
0600
0320
01C0
ENDCHAR
STARTCHAR R
ENCODING 82
SWIDTH 571 0
DWIDTH 12 0
BBX 10 14 1 0
VVECTOR 6 17
SWIDTH1 0 -1000
DWIDTH1 0 -21
BITMAP 
FE00
6300
6180
6180
6180
6380
7F00
6E00
6600
6700
6300
6380
6180
F1C0
ENDCHAR
STARTCHAR S
ENCODING 83
SWIDTH 476 0
DWIDTH 10 0
BBX 8 14 1 0
VVECTOR 5 17
SWIDTH1 0 -1000
DWIDTH1 0 -21
BITMAP 
3E
63
C1
C0
E0
70
3C
0E
07
03
03
83
C6
7C
ENDCHAR
STARTCHAR T
ENCODING 84
SWIDTH 571 0
DWIDTH 12 0
BBX 10 14 1 0
VVECTOR 6 17
SWIDTH1 0 -1000
DWIDTH1 0 -21
BITMAP 
FFC0
CCC0
8C40
0C00
0C00
0C00
0C00
0C00
0C00
0C00
0C00
0C00
0C00
1E00
ENDCHAR
STARTCHAR U
ENCODING 85
SWIDTH 667 0
DWIDTH 14 0
BBX 11 14 1 0
VVECTOR 7 17
SWIDTH1 0 -1000
DWIDTH1 0 -21
BITMAP 
F0E0
6040
6040
6040
6040
6040
6040
6040
6040
6040
6040
2040
3080
1F00
ENDCHAR
STARTCHAR V
ENCODING 86
SWIDTH 667 0
DWIDTH 14 0
BBX 11 14 1 0
VVECTOR 7 17
SWIDTH1 0 -1000
DWIDTH1 0 -21
BITMAP 
F0E0
6040
6040
3080
3080
3080
1900
1900
1900
0E00
0E00
0E00
0400
0400
ENDCHAR
STARTCHAR W
ENCODING 87
SWIDTH 857 0
DWIDTH 18 0
BBX 17 14 0 0
VVECTOR 9 17
SWIDTH1 0 -1000
DWIDTH1 0 -21
BITMAP 
F3C380
618100
618100
30C200
30C200
30C200
196400
196400
196400
0E3800
0E3800
0E3800
041000
041000
ENDCHAR
STARTCHAR X
ENCODING 88
SWIDTH 571 0
DWIDTH 12 0
BBX 10 14 1 0
VVECTOR 6 17
SWIDTH1 0 -1000
DWIDTH1 0 -21
BITMAP 
F9C0
3080
3100
1900
1A00
0E00
0C00
0600
0E00
0B00
1300
1180
2180
71C0
ENDCHAR
STARTCHAR Y
ENCODING 89
SWIDTH 571 0
DWIDTH 12 0
BBX 10 14 1 0
VVECTOR 6 17
SWIDTH1 0 -1000
DWIDTH1 0 -21
BITMAP 
F1C0
6080
6080
3100
3100
1A00
1A00
0C00
0C00
0C00
0C00
0C00
0C00
1E00
ENDCHAR
STARTCHAR Z
ENCODING 90
SWIDTH 476 0
DWIDTH 10 0
BBX 8 14 1 0
VVECTOR 5 17
SWIDTH1 0 -1000
DWIDTH1 0 -21
BITMAP 
7F
C3
86
06
0C
0C
18
18
30
30
60
61
C3
FE
ENDCHAR
STARTCHAR bracketleft
ENCODING 91
SWIDTH 286 0
DWIDTH 6 0
BBX 2 18 2 -2
VVECTOR 3 17
SWIDTH1 0 -1000
DWIDTH1 0 -21
BITMAP 
C0
80
80
80
80
80
80
80
80
80
80
80
80
80
80
80
80
C0
ENDCHAR
STARTCHAR backslash
ENCODING 92
SWIDTH 476 0
DWIDTH 10 0
BBX 7 14 1 0
VVECTOR 5 17
SWIDTH1 0 -1000
DWIDTH1 0 -21
BITMAP 
80
80
40
40
20
20
10
10
08
08
04
04
02
02
ENDCHAR
STARTCHAR bracketright
ENCODING 93
SWIDTH 286 0
DWIDTH 6 0
BBX 2 18 2 -2
VVECTOR 3 17
SWIDTH1 0 -1000
DWIDTH1 0 -21
BITMAP 
C0
40
40
40
40
40
40
40
40
40
40
40
40
40
40
40
40
C0
ENDCHAR
STARTCHAR asciicircum
ENCODING 94
SWIDTH 381 0
DWIDTH 8 0
BBX 5 3 2 11
VVECTOR 5 17
SWIDTH1 0 -1000
DWIDTH1 0 -21
BITMAP 
20
50
88
ENDCHAR
STARTCHAR underscore
ENCODING 95
SWIDTH 571 0
DWIDTH 12 0
BBX 12 1 0 0
VVECTOR 6 17
SWIDTH1 0 -1000
DWIDTH1 0 -21
BITMAP 
FFF0
ENDCHAR
STARTCHAR grave
ENCODING 96
SWIDTH 286 0
DWIDTH 6 0
BBX 3 3 1 11
VVECTOR 3 17
SWIDTH1 0 -1000
DWIDTH1 0 -21
BITMAP 
80
40
20
ENDCHAR
STARTCHAR a
ENCODING 97
SWIDTH 476 0
DWIDTH 10 0
BBX 9 10 1 0
VVECTOR 6 17
SWIDTH1 0 -1000
DWIDTH1 0 -21
BITMAP 
7C00
C600
8600
0E00
3600
6600
C600
C600
CE80
7300
ENDCHAR
STARTCHAR b
ENCODING 98
SWIDTH 571 0
DWIDTH 12 0
BBX 9 14 1 0
VVECTOR 6 17
SWIDTH1 0 -1000
DWIDTH1 0 -21
BITMAP 
2000
6000
E000
6000
6E00
7300
6180
6180
6180
6180
6180
6180
7300
4E00
ENDCHAR
STARTCHAR c
ENCODING 99
SWIDTH 476 0
DWIDTH 10 0
BBX 7 10 1 0
VVECTOR 5 17
SWIDTH1 0 -1000
DWIDTH1 0 -21
BITMAP 
3C
66
C2
C0
C0
C0
C0
C2
64
38
ENDCHAR
STARTCHAR d
ENCODING 100
SWIDTH 571 0
DWIDTH 12 0
BBX 9 14 1 0
VVECTOR 6 17
SWIDTH1 0 -1000
DWIDTH1 0 -21
BITMAP 
0100
0300
0700
0300
3B00
6700
C300
C300
C300
C300
C300
C300
6780
3B00
ENDCHAR
STARTCHAR e
ENCODING 101
SWIDTH 476 0
DWIDTH 10 0
BBX 8 10 1 0
VVECTOR 5 17
SWIDTH1 0 -1000
DWIDTH1 0 -21
BITMAP 
3C
66
C3
C3
FF
C0
C0
C1
62
3C
ENDCHAR
STARTCHAR f
ENCODING 102
SWIDTH 381 0
DWIDTH 8 0
BBX 6 14 1 0
VVECTOR 4 17
SWIDTH1 0 -1000
DWIDTH1 0 -21
BITMAP 
38
64
60
60
F0
60
60
60
60
60
60
60
60
F0
ENDCHAR
STARTCHAR g
ENCODING 103
SWIDTH 476 0
DWIDTH 10 0
BBX 8 13 1 -3
VVECTOR 5 17
SWIDTH1 0 -1000
DWIDTH1 0 -21
BITMAP 
3B
44
C6
C6
C6
44
78
C0
7E
C3
C3
C3
7E
ENDCHAR
STARTCHAR h
ENCODING 104
SWIDTH 571 0
DWIDTH 12 0
BBX 10 14 1 0
VVECTOR 6 17
SWIDTH1 0 -1000
DWIDTH1 0 -21
BITMAP 
2000
6000
E000
6000
6E00
7300
6180
6180
6180
6180
6180
6180
6180
F3C0
ENDCHAR
STARTCHAR i
ENCODING 105
SWIDTH 381 0
DWIDTH 8 0
BBX 4 14 2 0
VVECTOR 4 17
SWIDTH1 0 -1000
DWIDTH1 0 -21
BITMAP 
60
60
00
00
20
60
E0
60
60
60
60
60
60
F0
ENDCHAR
STARTCHAR j
ENCODING 106
SWIDTH 286 0
DWIDTH 6 0
BBX 3 18 1 -4
VVECTOR 3 17
SWIDTH1 0 -1000
DWIDTH1 0 -21
BITMAP 
60
60
00
00
20
60
E0
60
60
60
60
60
60
60
60
60
40
80
ENDCHAR
STARTCHAR k
ENCODING 107
SWIDTH 571 0
DWIDTH 12 0
BBX 9 14 1 0
VVECTOR 6 17
SWIDTH1 0 -1000
DWIDTH1 0 -21
BITMAP 
2000
6000
E000
6000
6780
6200
6400
6800
7000
7800
6C00
6600
6300
F780
ENDCHAR
STARTCHAR l
ENCODING 108
SWIDTH 381 0
DWIDTH 8 0
BBX 4 14 2 0
VVECTOR 4 17
SWIDTH1 0 -1000
DWIDTH1 0 -21
BITMAP 
20
60
E0
60
60
60
60
60
60
60
60
60
60
F0
ENDCHAR
STARTCHAR m
ENCODING 109
SWIDTH 762 0
DWIDTH 16 0
BBX 14 10 1 0
VVECTOR 8 17
SWIDTH1 0 -1000
DWIDTH1 0 -21
BITMAP 
2E70
7398
E318
6318
6318
6318
6318
6318
6318
F7BC
ENDCHAR
STARTCHAR n
ENCODING 110
SWIDTH 571 0
DWIDTH 12 0
BBX 10 10 1 0
VVECTOR 6 17
SWIDTH1 0 -1000
DWIDTH1 0 -21
BITMAP 
2E00
7300
E180
6180
6180
6180
6180
6180
6180
F3C0
ENDCHAR
STARTCHAR o
ENCODING 111
SWIDTH 476 0
DWIDTH 10 0
BBX 8 10 1 0
VVECTOR 5 17
SWIDTH1 0 -1000
DWIDTH1 0 -21
BITMAP 
3C
66
C3
C3
C3
C3
C3
C3
66
3C
ENDCHAR
STARTCHAR p
ENCODING 112
SWIDTH 571 0
DWIDTH 12 0
BBX 9 13 1 -3
VVECTOR 6 17
SWIDTH1 0 -1000
DWIDTH1 0 -21
BITMAP 
2E00
7300
E180
6180
6180
6180
6180
6180
7300
6E00
6000
6000
F000
ENDCHAR
STARTCHAR q
ENCODING 113
SWIDTH 571 0
DWIDTH 12 0
BBX 9 13 1 -3
VVECTOR 6 17
SWIDTH1 0 -1000
DWIDTH1 0 -21
BITMAP 
3900
6700
C300
C300
C300
C300
C300
C300
6700
3B00
0300
0300
0780
ENDCHAR
STARTCHAR r
ENCODING 114
SWIDTH 476 0
DWIDTH 10 0
BBX 8 10 1 0
VVECTOR 5 17
SWIDTH1 0 -1000
DWIDTH1 0 -21
BITMAP 
2E
73
E0
60
60
60
60
60
60
F0
ENDCHAR
STARTCHAR s
ENCODING 115
SWIDTH 476 0
DWIDTH 10 0
BBX 7 10 1 0
VVECTOR 5 17
SWIDTH1 0 -1000
DWIDTH1 0 -21
BITMAP 
7C
C6
C2
E0
78
3C
0E
86
C6
7C
ENDCHAR
STARTCHAR t
ENCODING 116
SWIDTH 381 0
DWIDTH 8 0
BBX 6 12 1 0
VVECTOR 4 17
SWIDTH1 0 -1000
DWIDTH1 0 -21
BITMAP 
20
60
F8
60
60
60
60
60
60
60
64
38
ENDCHAR
STARTCHAR u
ENCODING 117
SWIDTH 571 0
DWIDTH 12 0
BBX 10 10 1 0
VVECTOR 6 17
SWIDTH1 0 -1000
DWIDTH1 0 -21
BITMAP 
E380
6180
6180
6180
6180
6180
6180
61C0
3380
1D00
ENDCHAR
STARTCHAR v
ENCODING 118
SWIDTH 476 0
DWIDTH 10 0
BBX 9 10 0 0
VVECTOR 5 17
SWIDTH1 0 -1000
DWIDTH1 0 -21
BITMAP 
F380
6100
6100
3200
3200
3200
1C00
1C00
0800
0800
ENDCHAR
STARTCHAR w
ENCODING 119
SWIDTH 667 0
DWIDTH 14 0
BBX 13 10 0 0
VVECTOR 7 17
SWIDTH1 0 -1000
DWIDTH1 0 -21
BITMAP 
FF38
6610
6610
3320
3320
3320
1DC0
1DC0
0880
0880
ENDCHAR
STARTCHAR x
ENCODING 120
SWIDTH 571 0
DWIDTH 12 0
BBX 10 10 1 0
VVECTOR 6 17
SWIDTH1 0 -1000
DWIDTH1 0 -21
BITMAP 
F1C0
6080
3100
1A00
1C00
0E00
1600
2300
4180
E3C0
ENDCHAR
STARTCHAR y
ENCODING 121
SWIDTH 571 0
DWIDTH 12 0
BBX 11 13 0 -3
VVECTOR 6 17
SWIDTH1 0 -1000
DWIDTH1 0 -21
BITMAP 
F0E0
6040
3080
3080
1900
1900
0E00
0E00
0400
0400
0800
3800
3000
ENDCHAR
STARTCHAR z
ENCODING 122
SWIDTH 476 0
DWIDTH 10 0
BBX 8 10 1 0
VVECTOR 5 17
SWIDTH1 0 -1000
DWIDTH1 0 -21
BITMAP 
7F
C3
87
0E
1C
38
70
E1
C3
FE
ENDCHAR
STARTCHAR braceleft
ENCODING 123
SWIDTH 381 0
DWIDTH 8 0
BBX 5 18 1 -2
VVECTOR 4 17
SWIDTH1 0 -1000
DWIDTH1 0 -21
BITMAP 
18
20
40
40
40
40
40
40
80
40
40
40
40
40
40
40
20
18
ENDCHAR
STARTCHAR bar
ENCODING 124
SWIDTH 190 0
DWIDTH 4 0
BBX 1 18 1 -2
VVECTOR 2 17
SWIDTH1 0 -1000
DWIDTH1 0 -21
BITMAP 
80
80
80
80
80
80
80
80
80
80
80
80
80
80
80
80
80
80
ENDCHAR
STARTCHAR braceright
ENCODING 125
SWIDTH 381 0
DWIDTH 8 0
BBX 5 18 1 -2
VVECTOR 4 17
SWIDTH1 0 -1000
DWIDTH1 0 -21
BITMAP 
C0
20
10
10
10
10
10
10
08
10
10
10
10
10
10
10
20
C0
ENDCHAR
STARTCHAR asciitilde
ENCODING 126
SWIDTH 381 0
DWIDTH 8 0
BBX 6 2 1 12
VVECTOR 4 17
SWIDTH1 0 -1000
DWIDTH1 0 -21
BITMAP 
64
98
ENDCHAR
STARTCHAR char7F
ENCODING 127
SWIDTH 0 0
DWIDTH 0 0
BBX 0 0 0 -4
VVECTOR 0 -4
SWIDTH1 0 0
DWIDTH1 0 0
BITMAP 
ENDCHAR
STARTCHAR Adieresis
ENCODING 128
SWIDTH 762 0
DWIDTH 16 0
BBX 13 16 1 0
VVECTOR 8 17
SWIDTH1 0 -1000
DWIDTH1 0 -21
BITMAP 
0880
0000
0200
0200
0700
0700
0980
0980
10C0
10C0
3060
2060
3FE0
4030
4030
E078
ENDCHAR
STARTCHAR Aring
ENCODING 129
SWIDTH 762 0
DWIDTH 16 0
BBX 13 17 1 0
VVECTOR 8 17
SWIDTH1 0 -1000
DWIDTH1 0 -21
BITMAP 
0700
0880
0880
0700
0200
0700
0700
0980
0980
10C0
10C0
3060
2060
3FE0
4030
4030
E078
ENDCHAR
STARTCHAR Ccedilla
ENCODING 130
SWIDTH 571 0
DWIDTH 12 0
BBX 9 17 1 -3
VVECTOR 6 17
SWIDTH1 0 -1000
DWIDTH1 0 -21
BITMAP 
1F00
3180
6080
6000
C000
C000
C000
C000
C000
C000
6000
6080
3180
1F00
0600
0200
0400
ENDCHAR
STARTCHAR Eacute
ENCODING 131
SWIDTH 571 0
DWIDTH 12 0
BBX 10 17 1 0
VVECTOR 6 17
SWIDTH1 0 -1000
DWIDTH1 0 -21
BITMAP 
0200
0400
0800
FFC0
60C0
6040
6000
6000
6100
7F00
6100
6000
6000
6000
6040
60C0
FFC0
ENDCHAR
STARTCHAR Ntilde
ENCODING 132
SWIDTH 667 0
DWIDTH 14 0
BBX 10 17 2 0
VVECTOR 7 17
SWIDTH1 0 -1000
DWIDTH1 0 -21
BITMAP 
1900
2600
0000
E1C0
6080
7080
7080
5880
5880
4C80
4C80
4680
4680
4380
4380
4180
E180
ENDCHAR
STARTCHAR Odieresis
ENCODING 133
SWIDTH 667 0
DWIDTH 14 0
BBX 11 16 1 0
VVECTOR 7 17
SWIDTH1 0 -1000
DWIDTH1 0 -21
BITMAP 
1100
0000
1F00
3180
60C0
60C0
C060
C060
C060
C060
C060
C060
60C0
60C0
3180
1F00
ENDCHAR
STARTCHAR Udieresis
ENCODING 134
SWIDTH 667 0
DWIDTH 14 0
BBX 11 16 1 0
VVECTOR 7 17
SWIDTH1 0 -1000
DWIDTH1 0 -21
BITMAP 
1100
0000
F0E0
6040
6040
6040
6040
6040
6040
6040
6040
6040
6040
2040
3080
1F00
ENDCHAR
STARTCHAR aacute
ENCODING 135
SWIDTH 476 0
DWIDTH 10 0
BBX 9 14 1 0
VVECTOR 6 17
SWIDTH1 0 -1000
DWIDTH1 0 -21
BITMAP 
0400
0800
1000
0000
7C00
C600
8600
0E00
3600
6600
C600
C600
CE80
7300
ENDCHAR
STARTCHAR agrave
ENCODING 136
SWIDTH 476 0
DWIDTH 10 0
BBX 9 14 1 0
VVECTOR 6 17
SWIDTH1 0 -1000
DWIDTH1 0 -21
BITMAP 
2000
1000
0800
0000
7C00
C600
8600
0E00
3600
6600
C600
C600
CE80
7300
ENDCHAR
STARTCHAR acircumflex
ENCODING 137
SWIDTH 476 0
DWIDTH 10 0
BBX 9 14 1 0
VVECTOR 6 17
SWIDTH1 0 -1000
DWIDTH1 0 -21
BITMAP 
1000
2800
4400
0000
7C00
C600
8600
0E00
3600
6600
C600
C600
CE80
7300
ENDCHAR
STARTCHAR adieresis
ENCODING 138
SWIDTH 476 0
DWIDTH 10 0
BBX 9 13 1 0
VVECTOR 6 17
SWIDTH1 0 -1000
DWIDTH1 0 -21
BITMAP 
2400
0000
0000
7C00
C600
8600
0E00
3600
6600
C600
C600
CE80
7300
ENDCHAR
STARTCHAR atilde
ENCODING 139
SWIDTH 476 0
DWIDTH 10 0
BBX 9 13 1 0
VVECTOR 6 17
SWIDTH1 0 -1000
DWIDTH1 0 -21
BITMAP 
3200
4C00
0000
7C00
C600
8600
0E00
3600
6600
C600
C600
CE80
7300
ENDCHAR
STARTCHAR aring
ENCODING 140
SWIDTH 476 0
DWIDTH 10 0
BBX 9 15 1 0
VVECTOR 6 17
SWIDTH1 0 -1000
DWIDTH1 0 -21
BITMAP 
1800
2400
2400
1800
0000
7C00
C600
8600
0E00
3600
6600
C600
C600
CE80
7300
ENDCHAR
STARTCHAR ccedilla
ENCODING 141
SWIDTH 476 0
DWIDTH 10 0
BBX 7 13 1 -3
VVECTOR 5 17
SWIDTH1 0 -1000
DWIDTH1 0 -21
BITMAP 
3C
66
C2
C0
C0
C0
C0
C0
62
3C
18
08
10
ENDCHAR
STARTCHAR eacute
ENCODING 142
SWIDTH 476 0
DWIDTH 10 0
BBX 8 14 1 0
VVECTOR 5 17
SWIDTH1 0 -1000
DWIDTH1 0 -21
BITMAP 
04
08
10
00
3C
66
C3
C3
FF
C0
C0
C1
62
3C
ENDCHAR
STARTCHAR egrave
ENCODING 143
SWIDTH 476 0
DWIDTH 10 0
BBX 8 14 1 0
VVECTOR 5 17
SWIDTH1 0 -1000
DWIDTH1 0 -21
BITMAP 
20
10
08
00
3C
66
C3
C3
FF
C0
C0
C1
62
3C
ENDCHAR
STARTCHAR ecircumflex
ENCODING 144
SWIDTH 476 0
DWIDTH 10 0
BBX 8 14 1 0
VVECTOR 5 17
SWIDTH1 0 -1000
DWIDTH1 0 -21
BITMAP 
08
14
22
00
3C
66
C3
C3
FF
C0
C0
C1
62
3C
ENDCHAR
STARTCHAR edieresis
ENCODING 145
SWIDTH 476 0
DWIDTH 10 0
BBX 8 13 1 0
VVECTOR 5 17
SWIDTH1 0 -1000
DWIDTH1 0 -21
BITMAP 
24
00
00
3C
66
C3
C3
FF
C0
C0
C1
62
3C
ENDCHAR
STARTCHAR iacute
ENCODING 146
SWIDTH 381 0
DWIDTH 8 0
BBX 4 14 2 0
VVECTOR 4 17
SWIDTH1 0 -1000
DWIDTH1 0 -21
BITMAP 
10
20
40
00
20
60
E0
60
60
60
60
60
60
F0
ENDCHAR
STARTCHAR igrave
ENCODING 147
SWIDTH 381 0
DWIDTH 8 0
BBX 4 14 2 0
VVECTOR 4 17
SWIDTH1 0 -1000
DWIDTH1 0 -21
BITMAP 
80
40
20
00
20
60
E0
60
60
60
60
60
60
F0
ENDCHAR
STARTCHAR icircumflex
ENCODING 148
SWIDTH 381 0
DWIDTH 8 0
BBX 5 14 1 0
VVECTOR 4 17
SWIDTH1 0 -1000
DWIDTH1 0 -21
BITMAP 
20
50
88
00
10
30
70
30
30
30
30
30
30
78
ENDCHAR
STARTCHAR idieresis
ENCODING 149
SWIDTH 381 0
DWIDTH 8 0
BBX 4 13 2 0
VVECTOR 4 17
SWIDTH1 0 -1000
DWIDTH1 0 -21
BITMAP 
90
00
00
20
60
E0
60
60
60
60
60
60
F0
ENDCHAR
STARTCHAR ntilde
ENCODING 150
SWIDTH 571 0
DWIDTH 12 0
BBX 10 13 1 0
VVECTOR 6 17
SWIDTH1 0 -1000
DWIDTH1 0 -21
BITMAP 
1900
2600
0000
2E00
7300
E180
6180
6180
6180
6180
6180
6180
F3C0
ENDCHAR
STARTCHAR oacute
ENCODING 151
SWIDTH 476 0
DWIDTH 10 0
BBX 8 14 1 0
VVECTOR 5 17
SWIDTH1 0 -1000
DWIDTH1 0 -21
BITMAP 
04
08
10
00
3C
66
C3
C3
C3
C3
C3
C3
66
3C
ENDCHAR
STARTCHAR ograve
ENCODING 152
SWIDTH 476 0
DWIDTH 10 0
BBX 8 14 1 0
VVECTOR 5 17
SWIDTH1 0 -1000
DWIDTH1 0 -21
BITMAP 
20
10
08
00
3C
66
C3
C3
C3
C3
C3
C3
66
3C
ENDCHAR
STARTCHAR ocircumflex
ENCODING 153
SWIDTH 476 0
DWIDTH 10 0
BBX 8 14 1 0
VVECTOR 5 17
SWIDTH1 0 -1000
DWIDTH1 0 -21
BITMAP 
10
28
44
00
3C
66
C3
C3
C3
C3
C3
C3
66
3C
ENDCHAR
STARTCHAR odieresis
ENCODING 154
SWIDTH 476 0
DWIDTH 10 0
BBX 8 13 1 0
VVECTOR 5 17
SWIDTH1 0 -1000
DWIDTH1 0 -21
BITMAP 
24
00
00
3C
66
C3
C3
C3
C3
C3
C3
66
3C
ENDCHAR
STARTCHAR otilde
ENCODING 155
SWIDTH 476 0
DWIDTH 10 0
BBX 8 13 1 0
VVECTOR 5 17
SWIDTH1 0 -1000
DWIDTH1 0 -21
BITMAP 
32
4C
00
3C
66
C3
C3
C3
C3
C3
C3
66
3C
ENDCHAR
STARTCHAR uacute
ENCODING 156
SWIDTH 571 0
DWIDTH 12 0
BBX 10 14 1 0
VVECTOR 6 17
SWIDTH1 0 -1000
DWIDTH1 0 -21
BITMAP 
0400
0800
1000
0000
E380
6180
6180
6180
6180
6180
6180
61C0
7380
3D00
ENDCHAR
STARTCHAR ugrave
ENCODING 157
SWIDTH 571 0
DWIDTH 12 0
BBX 10 14 1 0
VVECTOR 6 17
SWIDTH1 0 -1000
DWIDTH1 0 -21
BITMAP 
1000
0800
0400
0000
E380
6180
6180
6180
6180
6180
6180
61C0
7380
3D00
ENDCHAR
STARTCHAR ucircumflex
ENCODING 158
SWIDTH 571 0
DWIDTH 12 0
BBX 10 14 1 0
VVECTOR 6 17
SWIDTH1 0 -1000
DWIDTH1 0 -21
BITMAP 
0800
1400
2200
0000
E380
6180
6180
6180
6180
6180
6180
61C0
7380
3D00
ENDCHAR
STARTCHAR udieresis
ENCODING 159
SWIDTH 571 0
DWIDTH 12 0
BBX 10 13 1 0
VVECTOR 6 17
SWIDTH1 0 -1000
DWIDTH1 0 -21
BITMAP 
2200
0000
0000
E380
6180
6180
6180
6180
6180
6180
61C0
7380
3D00
ENDCHAR
STARTCHAR dagger
ENCODING 160
SWIDTH 381 0
DWIDTH 8 0
BBX 3 6 2 9
VVECTOR 4 17
SWIDTH1 0 -1000
DWIDTH1 0 -21
BITMAP 
40
E0
40
40
40
40
ENDCHAR
STARTCHAR degree
ENCODING 161
SWIDTH 381 0
DWIDTH 8 0
BBX 4 4 2 10
VVECTOR 4 17
SWIDTH1 0 -1000
DWIDTH1 0 -21
BITMAP 
60
90
90
60
ENDCHAR
STARTCHAR cent
ENCODING 162
SWIDTH 571 0
DWIDTH 12 0
BBX 8 14 2 -2
VVECTOR 6 17
SWIDTH1 0 -1000
DWIDTH1 0 -21
BITMAP 
08
08
3E
6B
C9
C8
C8
C8
C8
C9
6A
3C
08
08
ENDCHAR
STARTCHAR sterling
ENCODING 163
SWIDTH 571 0
DWIDTH 12 0
BBX 9 14 1 0
VVECTOR 6 17
SWIDTH1 0 -1000
DWIDTH1 0 -21
BITMAP 
1C00
2600
6200
6000
6000
6000
F800
6000
6000
6000
6000
6080
6180
FF00
ENDCHAR
STARTCHAR section
ENCODING 164
SWIDTH 476 0
DWIDTH 10 0
BBX 7 14 1 0
VVECTOR 5 17
SWIDTH1 0 -1000
DWIDTH1 0 -21
BITMAP 
3C
46
C2
C0
F0
7C
9E
C6
F2
7C
1E
86
C6
7C
ENDCHAR
STARTCHAR bullet
ENCODING 165
SWIDTH 381 0
DWIDTH 8 0
BBX 6 6 1 4
VVECTOR 4 17
SWIDTH1 0 -1000
DWIDTH1 0 -21
BITMAP 
78
FC
FC
FC
FC
78
ENDCHAR
STARTCHAR paragraph
ENCODING 166
SWIDTH 667 0
DWIDTH 14 0
BBX 12 14 1 0
VVECTOR 7 17
SWIDTH1 0 -1000
DWIDTH1 0 -21
BITMAP 
1FF0
7360
6360
C360
C360
C360
6360
7360
1F60
0360
0360
0360
0360
0360
ENDCHAR
STARTCHAR germandbls
ENCODING 167
SWIDTH 476 0
DWIDTH 10 0
BBX 8 14 1 0
VVECTOR 5 17
SWIDTH1 0 -1000
DWIDTH1 0 -21
BITMAP 
1C
26
43
43
C3
C6
CC
C2
C3
C3
C3
C3
C6
DC
ENDCHAR
STARTCHAR registered
ENCODING 168
SWIDTH 571 0
DWIDTH 12 0
BBX 9 9 1 0
VVECTOR 6 17
SWIDTH1 0 -1000
DWIDTH1 0 -21
BITMAP 
3E00
4100
9880
9480
9480
9880
9480
4100
3E00
ENDCHAR
STARTCHAR copyright
ENCODING 169
SWIDTH 571 0
DWIDTH 12 0
BBX 9 9 1 0
VVECTOR 6 17
SWIDTH1 0 -1000
DWIDTH1 0 -21
BITMAP 
3E00
4100
9C80
A280
A080
A280
9C80
4100
3E00
ENDCHAR
STARTCHAR trademark
ENCODING 170
SWIDTH 571 0
DWIDTH 12 0
BBX 9 4 1 10
VVECTOR 6 17
SWIDTH1 0 -1000
DWIDTH1 0 -21
BITMAP 
E880
4D80
4A80
4880
ENDCHAR
STARTCHAR acute
ENCODING 171
SWIDTH 286 0
DWIDTH 6 0
BBX 3 3 1 11
VVECTOR 3 17
SWIDTH1 0 -1000
DWIDTH1 0 -21
BITMAP 
20
40
80
ENDCHAR
STARTCHAR dieresis
ENCODING 172
SWIDTH 381 0
DWIDTH 8 0
BBX 4 1 2 13
VVECTOR 4 17
SWIDTH1 0 -1000
DWIDTH1 0 -21
BITMAP 
90
ENDCHAR
STARTCHAR AE
ENCODING 174
SWIDTH 857 0
DWIDTH 18 0
BBX 15 14 1 0
VVECTOR 9 17
SWIDTH1 0 -1000
DWIDTH1 0 -21
BITMAP 
03FC
0386
0582
0580
0980
0988
11F8
1188
3F88
2180
2180
4182
4186
E3FC
ENDCHAR
STARTCHAR Oslash
ENCODING 175
SWIDTH 667 0
DWIDTH 14 0
BBX 11 14 1 0
VVECTOR 7 17
SWIDTH1 0 -1000
DWIDTH1 0 -21
BITMAP 
1F20
31A0
60C0
60C0
C160
C260
C460
C460
C860
D060
60C0
60C0
B180
9F00
ENDCHAR
STARTCHAR yen
ENCODING 180
SWIDTH 571 0
DWIDTH 12 0
BBX 10 14 1 0
VVECTOR 6 17
SWIDTH1 0 -1000
DWIDTH1 0 -21
BITMAP 
F1C0
6080
6080
3100
3100
FBC0
1A00
0C00
FFC0
0C00
0C00
0C00
0C00
1E00
ENDCHAR
STARTCHAR ordfeminine
ENCODING 187
SWIDTH 476 0
DWIDTH 10 0
BBX 7 10 1 4
VVECTOR 5 17
SWIDTH1 0 -1000
DWIDTH1 0 -21
BITMAP 
78
CC
8C
1C
6C
CC
CC
76
00
FE
ENDCHAR
STARTCHAR ordmasculine
ENCODING 188
SWIDTH 476 0
DWIDTH 10 0
BBX 7 10 1 4
VVECTOR 5 17
SWIDTH1 0 -1000
DWIDTH1 0 -21
BITMAP 
38
44
C6
C6
C6
C6
44
38
00
FE
ENDCHAR
STARTCHAR ae
ENCODING 190
SWIDTH 762 0
DWIDTH 16 0
BBX 13 10 1 0
VVECTOR 8 17
SWIDTH1 0 -1000
DWIDTH1 0 -21
BITMAP 
7DE0
C730
8618
0E18
37F8
6600
C600
C608
CF10
71E0
ENDCHAR
STARTCHAR oslash
ENCODING 191
SWIDTH 476 0
DWIDTH 10 0
BBX 10 10 0 0
VVECTOR 5 17
SWIDTH1 0 -1000
DWIDTH1 0 -21
BITMAP 
1E40
3380
6180
6380
6580
6980
7180
6180
6300
9E00
ENDCHAR
STARTCHAR questiondown
ENCODING 192
SWIDTH 476 0
DWIDTH 10 0
BBX 6 14 1 0
VVECTOR 4 17
SWIDTH1 0 -1000
DWIDTH1 0 -21
BITMAP 
18
18
00
08
08
18
30
60
C0
80
80
84
4C
38
ENDCHAR
STARTCHAR exclamdown
ENCODING 193
SWIDTH 286 0
DWIDTH 6 0
BBX 2 14 2 0
VVECTOR 3 17
SWIDTH1 0 -1000
DWIDTH1 0 -21
BITMAP 
C0
C0
00
00
C0
C0
C0
C0
C0
C0
C0
C0
C0
C0
ENDCHAR
STARTCHAR guillemotleft
ENCODING 199
SWIDTH 571 0
DWIDTH 12 0
BBX 9 9 1 0
VVECTOR 6 17
SWIDTH1 0 -1000
DWIDTH1 0 -21
BITMAP 
0880
1100
2200
4400
8800
4400
2200
1100
0880
ENDCHAR
STARTCHAR guillemotright
ENCODING 200
SWIDTH 571 0
DWIDTH 12 0
BBX 9 9 2 0
VVECTOR 7 17
SWIDTH1 0 -1000
DWIDTH1 0 -21
BITMAP 
8800
4400
2200
1100
0880
1100
2200
4400
8800
ENDCHAR
STARTCHAR ellipsis
ENCODING 201
SWIDTH 762 0
DWIDTH 16 0
BBX 12 2 2 0
VVECTOR 8 17
SWIDTH1 0 -1000
DWIDTH1 0 -21
BITMAP 
C630
C630
ENDCHAR
STARTCHAR uni00A0
ENCODING 202
SWIDTH 571 0
DWIDTH 12 0
BBX 0 0 12 -4
VVECTOR 12 -4
SWIDTH1 0 0
DWIDTH1 0 0
BITMAP 
ENDCHAR
STARTCHAR Agrave
ENCODING 203
SWIDTH 762 0
DWIDTH 16 0
BBX 13 17 1 0
VVECTOR 8 17
SWIDTH1 0 -1000
DWIDTH1 0 -21
BITMAP 
0400
0200
0100
0200
0200
0700
0700
0980
0980
10C0
10C0
2060
2060
3FE0
4030
4030
E078
ENDCHAR
STARTCHAR Atilde
ENCODING 204
SWIDTH 762 0
DWIDTH 16 0
BBX 13 17 1 0
VVECTOR 8 17
SWIDTH1 0 -1000
DWIDTH1 0 -21
BITMAP 
0640
0980
0000
0200
0200
0700
0700
0980
0980
10C0
10C0
2060
2060
3FE0
4030
4030
E078
ENDCHAR
STARTCHAR Otilde
ENCODING 205
SWIDTH 667 0
DWIDTH 14 0
BBX 11 17 1 0
VVECTOR 7 17
SWIDTH1 0 -1000
DWIDTH1 0 -21
BITMAP 
1900
2600
0000
1F00
3180
60C0
60C0
C060
C060
C060
C060
C060
C060
60C0
60C0
3180
1F00
ENDCHAR
STARTCHAR OE
ENCODING 206
SWIDTH 952 0
DWIDTH 20 0
BBX 17 14 1 0
VVECTOR 10 17
SWIDTH1 0 -1000
DWIDTH1 0 -21
BITMAP 
1F7F80
31E180
60E080
60E000
C06000
C06200
C07E00
C06200
C06000
C06000
60E080
60E080
31E180
1F7F80
ENDCHAR
STARTCHAR oe
ENCODING 207
SWIDTH 762 0
DWIDTH 16 0
BBX 14 10 1 0
VVECTOR 8 17
SWIDTH1 0 -1000
DWIDTH1 0 -21
BITMAP 
3CF0
6798
C30C
C30C
C3FC
C300
C300
C304
6788
3CF0
ENDCHAR
STARTCHAR endash
ENCODING 208
SWIDTH 429 0
DWIDTH 9 0
BBX 7 1 1 5
VVECTOR 5 17
SWIDTH1 0 -1000
DWIDTH1 0 -21
BITMAP 
FE
ENDCHAR
STARTCHAR emdash
ENCODING 209
SWIDTH 571 0
DWIDTH 12 0
BBX 10 1 1 5
VVECTOR 6 17
SWIDTH1 0 -1000
DWIDTH1 0 -21
BITMAP 
FFC0
ENDCHAR
STARTCHAR quotedblleft
ENCODING 210
SWIDTH 476 0
DWIDTH 10 0
BBX 6 4 2 10
VVECTOR 5 17
SWIDTH1 0 -1000
DWIDTH1 0 -21
BITMAP 
44
88
CC
CC
ENDCHAR
STARTCHAR quotedblright
ENCODING 211
SWIDTH 476 0
DWIDTH 10 0
BBX 6 4 2 10
VVECTOR 5 17
SWIDTH1 0 -1000
DWIDTH1 0 -21
BITMAP 
CC
CC
44
88
ENDCHAR
STARTCHAR quoteleft
ENCODING 212
SWIDTH 286 0
DWIDTH 6 0
BBX 2 4 2 10
VVECTOR 3 17
SWIDTH1 0 -1000
DWIDTH1 0 -21
BITMAP 
40
80
C0
C0
ENDCHAR
STARTCHAR quoteright
ENCODING 213
SWIDTH 286 0
DWIDTH 6 0
BBX 2 4 2 10
VVECTOR 3 17
SWIDTH1 0 -1000
DWIDTH1 0 -21
BITMAP 
C0
C0
40
80
ENDCHAR
STARTCHAR lozenge
ENCODING 215
SWIDTH 857 0
DWIDTH 18 0
BBX 13 13 2 0
VVECTOR 9 17
SWIDTH1 0 -1000
DWIDTH1 0 -21
BITMAP 
0200
0500
0880
1040
2020
4010
8008
4010
2020
1040
0880
0500
0200
ENDCHAR
STARTCHAR ydieresis
ENCODING 216
SWIDTH 571 0
DWIDTH 12 0
BBX 11 16 0 -3
VVECTOR 6 17
SWIDTH1 0 -1000
DWIDTH1 0 -21
BITMAP 
1100
0000
0000
F0E0
6040
3080
3080
1900
1900
0E00
0E00
0400
0400
0800
3800
3000
ENDCHAR
STARTCHAR Ydieresis
ENCODING 217
SWIDTH 762 0
DWIDTH 16 0
BBX 13 12 1 0
VVECTOR 8 17
SWIDTH1 0 -1000
DWIDTH1 0 -21
BITMAP 
7070
F8F8
FDF8
FFF8
FFF8
7FF0
7FF0
3FE0
1FC0
0F80
0700
0200
ENDCHAR
STARTCHAR missing
ENCODING -1
SWIDTH 810 0
DWIDTH 17 0
BBX 12 15 3 -1
VVECTOR 10 17
SWIDTH1 0 -1000
DWIDTH1 0 -21
BITMAP 
FFF0
8010
8010
8010
8010
8010
8010
8010
8010
8010
8010
8010
8010
8010
FFF0
ENDCHAR
ENDFONT
